<svg viewBox="0 0 96 96" xmlns="http://www.w3.org/2000/svg" xmlns:xlink="http://www.w3.org/1999/xlink" id="Icons_BugUnderMagnifyingGlass" overflow="hidden"><path d="M10.55 85C13.2835 87.7338 17.7157 87.734 20.4495 85.0005 20.4497 85.0003 20.4498 85.0002 20.45 85L33 72.45C34.6306 70.8182 35.3525 68.4878 34.93 66.22L39.3 61.8C52.499 71.9062 71.3916 69.399 81.4979 56.2 91.6041 43.001 89.0969 24.1084 75.8979 14.0021 62.6988 3.89591 43.8062 6.40312 33.7 19.6021 25.4319 30.4005 25.4319 45.4016 33.7 56.2L29.28 60.62C27.0122 60.1975 24.6818 60.9194 23.05 62.55L10.55 75.05C7.80238 77.7697 7.77971 82.2018 10.4994 84.9494 10.5162 84.9663 10.533 84.9832 10.55 85ZM33.5 38C33.5 24.7452 44.2452 14 57.5 14 70.7548 14 81.5 24.7452 81.5 38 81.5 51.2548 70.7548 62 57.5 62 44.2611 61.9616 33.5384 51.2389 33.5 38Z" fill="#FFC000"/><path d="M73 44.44 68.43 39.91C68.27 39.7882 68.0799 39.7122 67.88 39.69L65.06 39.69C64.96 39.09 64.85 38.48 64.72 37.89L68.38 37.19C68.8307 37.1064 69.1863 36.7587 69.28 36.31L70.81 29.4C70.9628 28.7835 70.5869 28.1599 69.9704 28.0071 69.9603 28.0046 69.9502 28.0022 69.94 28 69.3319 27.8598 68.7252 28.2391 68.585 28.8472 68.5833 28.8548 68.5816 28.8624 68.58 28.87L67.21 35.05 64.09 35.64C63.9149 35.0638 63.6662 34.5126 63.35 34L51.65 34C51.3315 34.522 51.0827 35.0834 50.91 35.67L47.79 35.08 46.43 28.9C46.2462 28.292 45.6044 27.9482 44.9964 28.132 44.4547 28.2958 44.1126 28.8294 44.19 29.39L45.72 36.3C45.8186 36.7461 46.1718 37.0915 46.62 37.18L50.28 37.88C50.15 38.47 50.04 39.08 49.95 39.68L47.09 39.68C46.8865 39.6999 46.6926 39.7761 46.53 39.9L42 44.44C41.4947 44.8183 41.3917 45.5347 41.77 46.04 42.1483 46.5453 42.8647 46.6483 43.37 46.27L47.69 41.92 49.69 41.92C49.69 42.26 49.69 42.56 49.69 42.82 49.6933 43.416 49.7638 44.0098 49.9 44.59L46.98 45.32C46.6097 45.4111 46.3095 45.6813 46.18 46.04L43.79 52.58C43.5746 53.1736 43.8782 53.8298 44.47 54.05 44.5958 54.0925 44.7272 54.1161 44.86 54.12 45.3415 54.1208 45.7725 53.8215 45.94 53.37L48.12 47.37 50.76 46.71C51.9242 48.6875 53.9059 50.0465 56.17 50.42L56.54 50.3 56.54 42C56.54 41.4477 56.9877 41 57.54 41 58.0923 41 58.54 41.4477 58.54 42L58.54 50.32 58.91 50.44C61.1763 50.0718 63.16 48.7114 64.32 46.73L66.96 47.39 69.15 53.39C69.3113 53.8418 69.7403 54.1425 70.22 54.14 70.3528 54.1361 70.4842 54.1125 70.61 54.07 71.2018 53.8498 71.5053 53.1936 71.29 52.6L68.86 46C68.7305 45.6413 68.4303 45.3711 68.06 45.28L65.14 44.55C65.2762 43.9697 65.3467 43.376 65.35 42.78 65.35 42.52 65.35 42.22 65.35 41.88L67.35 41.88 71.67 46.23C72.0861 46.7025 72.8065 46.7482 73.279 46.3321 73.7515 45.916 73.7972 45.1957 73.3811 44.7232 73.2753 44.6031 73.1455 44.5066 73 44.44Z" fill="#FFC000"/><path d="M63.44 21.44C63.8081 21.2563 63.9632 20.8131 63.79 20.44 63.5992 20.0799 63.1608 19.9308 62.79 20.1 61.8266 20.5901 61.0117 21.329 60.43 22.24 60.0073 22.908 59.6712 23.6271 59.43 24.38 58.2157 23.8999 56.8643 23.8999 55.65 24.38 55.4172 23.6239 55.0806 22.9037 54.65 22.24 54.0705 21.327 53.2551 20.5876 52.29 20.1 51.9195 19.9253 51.4772 20.0757 51.29 20.44 51.1096 20.8102 51.2614 21.2565 51.63 21.44 52.3187 21.8052 52.9009 22.3427 53.32 23 53.7346 23.6463 54.0419 24.3555 54.23 25.1 52.4487 26.5325 51.4389 28.715 51.5 31 51.5031 31.3344 51.5264 31.6684 51.57 32L63.43 32C63.4736 31.6684 63.4969 31.3344 63.5 31 63.547 28.7292 62.5387 26.5649 60.77 25.14 60.9581 24.3955 61.2654 23.6863 61.68 23.04 62.1129 22.3588 62.7207 21.8062 63.44 21.44Z" fill="#FFC000"/></svg>