<svg viewBox="0 0 96 96" xmlns="http://www.w3.org/2000/svg" xmlns:xlink="http://www.w3.org/1999/xlink" id="Icons_Lungs" overflow="hidden"><path d="M62.55 19C60.05 18 57.81 17.7 56.93 19.46 55.78 21.76 56.15 29.61 55.35 31.03 55.0259 31.8191 54.185 32.2648 53.35 32.09 52 32 52 29 52 29L52 9 50 9 50 11 46 11 46 9 44 9 44 29C44 29 44 32 42.66 32.13 41.825 32.3048 40.9841 31.8591 40.66 31.07 39.86 29.65 40.23 21.8 39.08 19.5 38.19 17.74 36 18 33.45 19 18.57 25.51 8 41.81 8 60.92 7.96055 69.4022 10.1282 77.7488 14.29 85.14 14.5 85.43 15.6 86.81 16.63 86.81 24.18 86.81 36.96 79.14 39.26 72.23 41.56 65.32 40.53 51.62 43.09 47.69 44.1711 45.9067 45.9536 44.6615 48 44.26 50.0464 44.6615 51.8289 45.9067 52.91 47.69 55.47 51.62 54.44 65.33 56.74 72.23 59.04 79.13 71.82 86.81 79.37 86.81 80.37 86.81 81.5 85.43 81.71 85.14 85.8718 77.7488 88.0395 69.4022 88 60.92 88 41.81 77.43 25.51 62.55 19ZM46 13 50 13 50 15 46 15ZM46 17 50 17 50 19 46 19ZM46 21 50 21 50 23 46 23ZM46 25 50 25 50 27 46 27ZM75 54.23C75.4584 56.0732 76.0193 57.8893 76.68 59.67 77.2645 60.7773 78.1258 61.7144 79.18 62.39 80.0692 63.0453 80.2588 64.2974 79.6035 65.1865 79.2279 65.6962 78.6331 65.9979 78 66 76.85 66 75.79 64.83 75 64.09 73.9184 63.062 73.0989 61.7898 72.61 60.38 71.94 58.38 71.43 56.38 70.79 54.44 70.2104 55.5721 69.8507 56.8039 69.73 58.07 69.73 58.74 69.8 59.38 69.81 60.07 69.8566 61.1736 68.9998 62.106 67.8962 62.1526 67.0533 62.1882 66.2787 61.6911 65.96 60.91 65.36 59.45 65.7 57.33 66.03 55.91 66.6131 53.7716 67.5456 51.7442 68.79 49.91 67.2962 47.3409 65.1948 45.1776 62.67 43.61 63.1191 45.4575 63.271 47.3647 63.12 49.26 63.1268 50.2485 63.0228 51.2347 62.81 52.2 62.5496 53.2734 61.4684 53.9326 60.3949 53.6722 60.0951 53.5995 59.8162 53.4584 59.58 53.26 58.71 52.53 58.9 51.56 59.01 50.58 59.36 47.37 59.25 43.86 57.01 41.28 56.4453 40.7915 55.7501 40.4786 55.01 40.38 54.11 40.12 53.2 39.87 52.3 39.6 50.6739 39.1812 49.1894 38.3353 48 37.15 46.7853 38.328 45.2758 39.157 43.63 39.55 42.73 39.82 41.82 40.07 40.92 40.33 40.02 40.59 39.34 40.65 38.85 41.33 37.8493 42.6162 37.1859 44.1322 36.92 45.74 36.735 47.328 36.735 48.932 36.92 50.52 37.03 51.52 37.22 52.47 36.35 53.2 35.4967 53.9014 34.2364 53.7783 33.535 52.925 33.3159 52.6584 33.1695 52.3398 33.11 52 32.5005 49.2059 32.5587 46.3074 33.28 43.54 30.761 45.1029 28.6632 47.2591 27.17 49.82 28.4529 51.6284 29.3795 53.6647 29.9 55.82 30.0998 56.8981 30.1903 57.9937 30.17 59.09 30.2269 59.7053 30.1693 60.3257 30 60.92 29.5763 61.9401 28.4059 62.4235 27.3858 61.9998 26.6953 61.713 26.2225 61.065 26.16 60.32 26.08 59.51 26.16 58.67 26.16 57.86 26.0597 56.6549 25.7197 55.4819 25.16 54.41 24.21 57.31 23.8 60.82 21.77 63.21 20.69 64.5 18.13 67.42 16.42 65.28 14.71 63.14 18.42 61.48 19.25 59.89 19.7744 58.6617 20.1796 57.3858 20.46 56.08 21 54.51 21.41 53 22 51.42 23.0914 48.5136 24.758 45.8573 26.9 43.61 24.2197 43.0725 21.4609 44.0522 19.72 46.16 18.9 47.07 17.65 47.51 16.64 46.54 15.8663 45.8092 15.8004 44.6006 16.49 43.79 19.67 39.37 25.78 38.52 30.54 40.57L31.15 40.17C29.4145 38.3155 28.2603 35.9932 27.83 33.49 27.59 32.15 27.28 30.32 28.83 29.66 29.7563 29.2654 30.8315 29.621 31.34 30.49 31.5819 31.0903 31.7009 31.7329 31.69 32.38 32.0131 34.6469 33.1335 36.7245 34.85 38.24 36.5067 37.5439 38.2029 36.9462 39.93 36.45 41.3717 36.1387 42.7812 35.6935 44.14 35.12 45.0339 34.6272 45.7009 33.8059 46 32.83L46 29 50 29 50 32.82C50.3278 33.8356 51.0479 34.678 52 35.16 53.3345 35.7054 54.7128 36.1369 56.12 36.45 57.8471 36.9462 59.5433 37.5439 61.2 38.24 62.9548 36.6949 64.0826 34.5604 64.37 32.24 64.3609 31.6297 64.4766 31.024 64.71 30.46 65.2217 29.5947 66.2962 29.2437 67.22 29.64 68.82 30.32 68.46 32.24 68.22 33.59 67.7677 36.0435 66.6226 38.3164 64.92 40.14L65.53 40.54C70.35 38.46 76.29 39.38 79.53 43.73 80.1675 44.4714 80.1927 45.5599 79.59 46.33 78.59 47.51 77.21 47.11 76.34 46.14 74.5969 44.0287 71.8351 43.0454 69.15 43.58 71.9194 46.6141 73.925 50.2652 75 54.23Z" fill="#FF0000"/></svg>