<svg viewBox="0 0 96 96" xmlns="http://www.w3.org/2000/svg" xmlns:xlink="http://www.w3.org/1999/xlink" id="Icons_Stethoscope" overflow="hidden"><path d="M71 44C67.1 44 64 40.9 64 37 64 33.1 67.1 30 71 30 74.9 30 78 33.1 78 37 78 40.9 74.9 44 71 44ZM82 37C82 30.9 77.1 26 71 26 64.9 26 60 30.9 60 37 60 42 63.4 46.3 68 47.6L68 71C68 79.3 61.3 86 53 86 44.7 86 38 79.3 38 71L38 60.8C48.2 59.3 56 50.6 56 40 56 38.5 55.2 37.2 54 36.6L54 12C54 9 51.7 6.5 48.8 6.1 48.4 4.9 47.3 4 46 4L45 4C42.8 4 41 5.8 41 8 41 10.2 42.8 12 45 12L46 12C47.2 12 48.3 11.2 48.8 10.2 49.5 10.5 50 11.2 50 12L50 36.6C48.8 37.3 48 38.6 48 40 48 47.2 42.2 53 35 53 27.8 53 22 47.2 22 40 22 38.5 21.2 37.2 20 36.6L20 12C20 11.2 20.5 10.5 21.2 10.2 21.7 11.3 22.7 12 24 12L25 12C27.2 12 29 10.2 29 8 29 5.8 27.2 4 25 4L24 4C22.7 4 21.6 4.9 21.2 6.1 18.3 6.5 16 9 16 12L16 36.6C14.8 37.3 14 38.6 14 40 14 50.6 21.8 59.3 32 60.8L32 71C32 82.6 41.4 92 53 92 64.6 92 74 82.6 74 71L74 47.6C78.6 46.3 82 42 82 37Z" fill="#C00000"/><circle cx="71" cy="37" r="5" fill="#C00000"/></svg>