<svg viewBox="0 0 96 96" xmlns="http://www.w3.org/2000/svg" xmlns:xlink="http://www.w3.org/1999/xlink" id="Icons_Help_RTL" overflow="hidden"><path d="M10 48C10 69 27 86 48 86 69 86 86 69 86 48 86 27 69 10 48 10 27 10 10 27 10 48ZM43 71C43 68.2 45.2 66 48 66 50.8 66 53 68.2 53 71 53 73.8 50.8 76 48 76 45.2 76 43 73.8 43 71ZM31 37C31 27.5 38.5 20 48 20 58.2 20 65 26.8 65 37L59 37C59 30.1 54.9 26 48 26 41.7 26 37 30.7 37 37 37 43.1 41.3 47 48 47L51 47 51 62 45 62C45 62 45 55.4 45 52.8 36.6 51.6 31 45.5 31 37Z" fill="#FFC000"/></svg>