<svg viewBox="0 0 96 96" xmlns="http://www.w3.org/2000/svg" xmlns:xlink="http://www.w3.org/1999/xlink" id="Icons_Zebra" overflow="hidden"><path d="M87.1 28.2 75.7 16.8C75 16.1 74 15.5 73 15.3L72.9 15.3 72.9 11.6C72.9 11.3 72.7 11.1 72.4 11.1 72.4 11.1 72.4 11.1 72.4 11.1 70.5 11.1 68.9 12.7 68.9 14.6L68.9 15.5 68.8 15.5C65.9 16.6 63.1 20.1 60.1 23.6 55.7 28.9 50.5 35 43.9 35L27.9 35C25.5 35 23.2 35.7 21.3 37L21.2 37.1 21.2 37 15.8 37C11.4 37 7.8 40.6 7.8 45L7.8 57 15.8 53.4 15.9 53.2 15.9 59.9 15.7 59.9C15.2 58.7 14.1 58 12.8 58 11.2 58.1 9.9 59.5 9.9 61.1L9.9 83C9.9 84.6 11.1 86 12.8 86 12.8 86 12.9 86 12.9 86 14.5 86 15.9 84.8 15.9 83.1 15.9 83.1 15.9 83 15.9 83L15.9 66.8 16 66.9C16.6 67.2 17.3 67.4 18 67.4 19 67.4 20 67 20.7 66.3L27 60 27.1 60C29.9 61.3 32.9 62 35.9 62.1L48.9 62.1 48.9 83C48.9 84.7 50.2 86.1 51.9 86.1 53.5 86.1 54.9 84.9 54.9 83.2 54.9 83.2 54.9 83.1 54.9 83.1L54.9 62 55 62C56.3 62 57.6 61.7 58.8 61.3L58.9 61.3 58.9 82.9C58.9 84.5 60.2 85.9 61.8 86L61.9 86C63.5 86 64.9 84.8 64.9 83.1 64.9 83.1 64.9 83 64.9 83L64.9 56.6C65.9 55.3 66.6 53.7 66.9 52.1L66.9 52C66.9 40.4 69.6 31 72.9 31L74.1 32.2C75.2 33.3 76.7 34 78.3 34L80.9 34 81.1 34.2C82.7 35.8 85.2 35.8 86.8 34.2 86.8 34.2 86.8 34.2 86.8 34.2L87.1 33.9C88.6 32.3 88.6 29.8 87.1 28.2ZM13.9 80.1 13.8 80.1C13.5 80 13.3 80 13 80 12.7 80 12.3 80 12 80.1L11.9 80.1 11.9 78.1 12 78.1C12.3 78 12.7 78 13 78 13.3 78 13.6 78 13.8 78L13.9 78 13.9 80.1ZM13.9 73.1 13.8 73.1C13.5 73 13.3 73 13 73 12.7 73 12.3 73 12 73.1L11.9 73.1 11.9 71.1 12 71.1C12.3 71 12.7 71 13 71 13.3 71 13.6 71 13.8 71L13.9 71 13.9 73.1ZM13.9 65.8 13.8 65.8C13.5 65.8 13.3 65.7 13 65.7 12.7 65.7 12.3 65.7 12 65.8L11.9 65.8 11.9 63.8 12 63.8C12.3 63.7 12.7 63.7 13 63.7 13.3 63.7 13.6 63.7 13.8 63.7L13.9 63.7 13.9 65.8ZM22.1 62 22.1 62C21 60.7 19.6 59.8 18 59.6L18 59.6 18 57.6 18.1 57.6C20.2 57.8 22.1 58.9 23.5 60.5L23.6 60.6 22.1 62ZM29.5 58.8C28.9 58.6 28.4 58.4 27.9 58.1L26.8 57.5C24.7 54.6 21.6 52.6 18 51.9L17.9 51.9 17.9 49.9 18 49.9C21.2 50.5 26.9 52.4 29.6 58.6L29.7 58.8 29.5 58.8ZM35.9 60C35.4 60 34.8 60 34.2 59.9L34.1 59.9 34.1 59.8C31.8 52.5 26.1 46.7 18.8 44.3L19.4 42.5 19.4 42.5C23.2 43.7 32.3 47.7 36.1 59.9L36.1 60 35.9 60ZM42.8 37.1C39.3 48.6 39.9 56.3 40.6 59.9L40.6 60 38.4 60 38.4 59.9C36.7 45 25.9 40 22.6 38.8L22.4 38.7 22.6 38.6C23.3 38.2 24 37.8 24.7 37.6L24.7 37.6 24.7 37.6C28.6 39.3 32 42 34.6 45.4 34 42.7 33.7 40 33.5 37.2L33.5 37 35.5 37 35.5 37.1C35.7 41.6 36.6 46.1 38.2 50.4 38.6 45.9 39.5 41.5 40.8 37.1L40.8 37 42.8 37.1 42.8 37.1ZM43.7 60 43.7 60C43.4 56.2 43.6 48.2 47.8 36.4 48.5 36.2 49.3 35.9 49.9 35.6L50.1 35.5 50 35.7C45.5 47.9 45.3 56.1 45.5 60L45.5 60 43.7 60ZM52.9 80 52.8 80C52.5 80 52.3 80 52 80 51.7 80 51.3 80 51 80.1L50.9 80.1 50.9 78.1 51 78.1C51.3 78 51.7 78 52 78 52.3 78 52.6 78 52.8 78L52.9 78 52.9 80ZM52.9 73 52.8 73C52.5 73 52.3 73 52 73 51.7 73 51.3 73 51 73.1L50.9 73.1 50.9 71.1 51 71.1C51.3 71 51.7 71 52 71 52.3 71 52.6 71 52.8 71L52.9 71 52.9 73ZM52.9 66.2 52.8 66.1C52.5 66 52.3 66 52 66 51.7 66 51.4 66.1 51.1 66.3L50.9 66.4 50.9 64.3 51 64.3C51.3 64.2 51.7 64.1 52 64.1 52.3 64.1 52.6 64.1 52.8 64.2L52.9 64.2 52.9 66.2ZM54.4 60C53.9 57.6 53.1 54.7 52.3 54.2L51.7 54.2C50.9 54.8 50 57.7 49.6 60L49.6 60 47.6 60 47.6 59.9C47.9 57.9 48.4 55.9 49.3 54.1L49.3 54.1 51.4 45.8C51.4 45.8 51.4 45.8 51.5 45.8 51.5 45.8 51.5 45.8 51.5 45.8L54.1 52.8 54.6 54C55.5 55.8 56.1 57.8 56.3 59.8L56.3 59.9 56.2 59.9C55.8 60 55.3 60 54.9 60L54.4 60ZM51.7 34.6C52.2 34.3 52.7 34 53.2 33.5L53.3 33.4 53.3 33.6C56.2 45 60.2 51.9 63 55.7 63 55.7 63 55.8 63.1 55.8L63 56 63 58.7 62.8 58.5C59.5 54.6 54.9 47.4 51.7 34.6L51.7 34.6ZM65 49.3C65 49.3 60.7 45.7 55.4 31.9L55.4 31.8 55.4 31.8C55.9 31.4 56.4 30.9 56.8 30.4L56.9 30.3 56.9 30.5C58.6 36.4 61.3 41.8 65.1 46.6 65.1 47.3 65 49.3 65 49.3ZM65.9 40.3 65.9 40.5 65.8 40.3C63.1 36.3 61 31.9 59.6 27.3L60.9 25.7 61 25.6 61 25.8C62.3 30 64.1 34 66.3 37.8 66.3 38.5 66.1 39.3 65.9 40.3L65.9 40.3ZM69.4 31C69 31.5 68.6 32.1 68.3 32.6L68.2 32.8 68.1 32.6C66.2 29.5 64.7 26.1 63.6 22.6 64.1 22.1 64.5 21.6 65 21.1L65.1 21 65.2 21.2C66.2 24.6 67.6 27.8 69.4 31L69.4 31 69.4 31ZM77.3 31.9C76.7 31.7 76.1 31.4 75.6 30.9L73.8 29 73 29C70.9 25.7 69.3 22.1 68.1 18.4L68.1 18.3 68.2 18.3C68.7 17.9 69.2 17.6 69.8 17.4L69.9 17.4 69.9 17.5C72.4 25 75.4 29.4 77.5 31.8L77.8 32.1 77.3 31.9ZM80.2 29.9 80.2 29.9C78.4 27.1 77.2 24 76.6 20.8L76.5 20.5 79.1 23.1C79.7 25.1 80.6 26.9 81.7 28.6L81.8 28.7 80.2 29.9Z"/><path d="M22.9 85.9C21.3 85.9 20 84.7 20 83.1 20 83 20 83 20 82.9L20 69.1C20.8 68.8 21.5 68.3 22.2 67.7L27.5 62.4C29.2 63.1 31.1 63.6 33 63.9L30.7 66.2C30 66.9 29 67.3 28 67.3 27.3 67.3 26.6 67.1 26 66.8L25.9 66.7 25.9 83C26 84.6 24.7 85.9 23.2 85.9 23 85.9 23 85.9 22.9 85.9Z"/></svg>